# xmcd CD database file
#
# Track frame offsets:
#	150
#	18301
#	38083
#	69818
#	86346
#	118578
#	131952
#	154902
#	177537
#	198301
#
# Disc length: 2810 seconds
#
# Revision: 0
# Processed by: cddbd v1.5.2PL0 Copyright (c) Steve Scherf et al.
# Submitted via: CDex 1.51
#
DISCID=800af80a
DTITLE=Kevin Byrne - Las Cintas
DYEAR=2004
DGENRE=Jazz
TTITLE0=Clinch
TTITLE1=Sangrito
TTITLE2=Darkning
TTITLE3=White flag on a blue field
TTITLE4=Priscilla
TTITLE5=Remilare
TTITLE6=Rosa de roca
TTITLE7=The day and the night
TTITLE8=Las Cintas
TTITLE9=Adiez
EXTD=YEAR: 2004
EXTT0=
EXTT1=
EXTT2=
EXTT3=
EXTT4=
EXTT5=
EXTT6=
EXTT7=
EXTT8=
EXTT9=
PLAYORDER=
